<?xml version="1.0" standalone="no"?>
<!DOCTYPE svg PUBLIC "-//W3C//DTD SVG 20010904//EN"
 "http://www.w3.org/TR/2001/REC-SVG-20010904/DTD/svg10.dtd">
<svg version="1.0" xmlns="http://www.w3.org/2000/svg"
 width="1024.000000pt" height="1024.000000pt" viewBox="0 0 1024.000000 1024.000000"
 preserveAspectRatio="xMidYMid meet">

<g transform="translate(0.000000,1024.000000) scale(0.100000,-0.100000)"
fill="#000000" stroke="none">
<path d="M4965 9609 c-432 -38 -830 -218 -1126 -509 -222 -220 -352 -426 -449
-719 -113 -337 -135 -698 -74 -1206 64 -529 23 -848 -130 -1022 -75 -85 -191
-115 -281 -74 -23 10 -67 48 -103 89 -74 83 -107 96 -169 66 -48 -24 -73 -72
-73 -140 0 -68 33 -245 70 -379 59 -208 158 -367 294 -469 36 -28 64 -51 63
-52 -1 -1 -40 -18 -87 -37 -150 -61 -183 -77 -289 -140 -112 -66 -258 -196
-336 -297 -91 -119 -84 -104 -670 -1560 -507 -1259 -524 -1304 -551 -1430 -18
-86 -18 -290 1 -378 17 -83 55 -186 90 -245 14 -24 25 -46 25 -49 0 -3 -46 -8
-103 -10 -120 -5 -154 -19 -194 -80 -56 -84 -26 -211 60 -251 32 -16 342 -17
4173 -17 4117 0 4138 0 4179 20 109 53 119 220 18 297 -27 21 -48 27 -108 31
l-74 5 -1 676 c0 698 -1 717 -41 793 -24 47 -80 106 -128 138 -85 54 -127 60
-417 60 l-261 0 -10 73 c-17 116 -48 183 -114 250 -106 106 -80 102 -633 105
-531 3 -546 2 -628 -61 -90 -69 -145 -175 -155 -299 l-6 -67 -276 -3 -276 -3
-55 -27 c-115 -57 -187 -150 -209 -272 -7 -39 -11 -286 -11 -713 l0 -653 -418
0 -419 0 -1 35 c-2 49 -15 71 -85 142 -57 58 -62 67 -68 120 -16 143 -33 231
-49 263 -25 49 -141 172 -197 209 -36 24 -57 31 -97 31 -58 0 -1 -45 -481 385
-361 324 -356 320 -420 320 -92 -1 -154 -56 -163 -144 -6 -65 10 -102 63 -149
23 -20 109 -98 191 -172 320 -290 545 -484 685 -592 120 -93 149 -128 149
-181 0 -40 -4 -46 -97 -135 -148 -141 -113 -132 -505 -132 l-333 0 -51 30
c-67 38 -118 97 -161 187 -29 60 -36 88 -40 157 -11 177 61 329 217 459 l50
42 -119 117 -119 118 -241 2 -241 3 47 68 c39 56 51 67 68 62 51 -17 71 -16
95 3 l25 20 0 594 0 593 -24 41 c-64 112 -213 108 -271 -6 -19 -37 -20 -61
-20 -483 l0 -444 -50 -63 c-56 -70 -111 -158 -186 -295 l-49 -90 -305 -5
c-285 -5 -307 -6 -340 -26 -122 -71 -114 -247 14 -305 38 -17 78 -19 619 -19
317 0 577 -2 577 -4 0 -2 -11 -28 -24 -59 -53 -120 -71 -318 -41 -459 11 -56
26 -96 82 -225 4 -10 -154 -13 -770 -13 l-774 0 -41 33 c-56 45 -85 82 -131
168 -76 143 -94 298 -52 451 19 71 237 626 531 1353 67 165 212 523 322 795
110 272 213 521 230 552 96 181 260 308 539 419 102 40 661 231 665 226 1 -1
-5 -31 -14 -67 -13 -50 -17 -114 -17 -282 0 -207 -1 -217 -20 -226 -81 -37
-183 -164 -219 -274 -25 -73 -26 -89 -26 -282 l0 -204 26 -32 27 -31 110 3
c154 4 150 -2 157 251 6 214 11 234 75 283 95 72 242 16 275 -106 6 -22 10
-111 9 -199 -1 -220 2 -224 163 -231 68 -3 108 -1 108 5 0 6 9 21 20 35 18 23
20 42 20 225 0 149 -4 216 -15 260 -45 170 -188 310 -354 346 l-51 11 0 203
c0 271 21 374 104 498 41 62 104 116 110 95 2 -7 16 -89 31 -183 31 -196 57
-315 119 -545 122 -455 408 -1303 566 -1680 18 -41 47 -112 65 -157 51 -123
93 -201 114 -213 32 -17 78 -12 106 13 57 50 285 626 497 1257 213 636 345
1147 374 1443 8 82 20 85 82 20 59 -61 106 -165 131 -290 19 -92 21 -137 21
-490 l0 -390 -62 -17 c-100 -28 -168 -67 -239 -136 -170 -166 -208 -423 -94
-625 174 -307 587 -365 835 -117 73 73 121 159 141 252 17 78 6 232 -20 300
-32 85 -113 184 -196 242 l-71 49 8 77 c5 42 7 226 5 407 -3 306 -5 336 -26
413 -13 46 -21 85 -18 88 7 8 652 -214 762 -262 133 -59 211 -109 298 -193
118 -114 138 -152 361 -707 331 -825 375 -927 418 -971 68 -71 240 -65 292 9
23 32 19 84 -10 153 -50 121 -200 489 -349 860 -84 209 -169 421 -190 470 -91
218 -164 333 -291 455 -124 119 -251 196 -474 286 -58 23 -105 46 -105 52 0 5
28 31 61 58 153 123 238 274 304 544 40 166 55 294 40 349 -33 122 -154 132
-235 20 -49 -69 -103 -102 -176 -107 -112 -8 -209 63 -275 202 -96 203 -115
456 -65 879 60 506 50 806 -40 1145 -193 733 -822 1255 -1594 1321 -133 12
-178 12 -310 0z m-494 -1151 c94 -147 272 -340 424 -459 298 -235 670 -405
1050 -479 33 -7 150 -15 260 -19 215 -7 233 -11 289 -67 116 -117 87 -327 -66
-469 -96 -89 -192 -111 -346 -79 -30 6 -33 4 -44 -26 -25 -72 -112 -238 -163
-311 -72 -102 -232 -252 -333 -312 -199 -120 -433 -153 -643 -91 -289 86 -571
368 -694 697 -10 26 -21 50 -25 52 -3 2 -26 -3 -51 -12 -30 -10 -67 -14 -115
-11 -131 9 -247 95 -316 236 -28 57 -33 77 -33 142 0 64 4 83 30 128 52 95
145 139 268 128 l67 -6 0 92 c0 105 12 139 114 312 137 233 222 407 270 554
10 28 19 52 21 52 1 0 18 -24 36 -52z m979 -209 c66 -45 222 -121 330 -162
211 -80 340 -107 540 -114 152 -6 155 -6 182 -34 52 -51 25 -130 -47 -142 -57
-9 -316 11 -427 33 -198 40 -418 126 -619 240 -122 71 -148 122 -90 181 38 38
74 37 131 -2z m-631 -2424 c104 -35 216 -49 350 -42 138 7 251 36 390 103 51
25 95 43 97 41 3 -2 7 -71 10 -153 6 -177 16 -227 55 -289 33 -53 35 -71 13
-146 -49 -165 -164 -328 -329 -466 -82 -69 -178 -129 -237 -149 -44 -14 -52
-14 -95 0 -131 45 -338 217 -457 380 -41 57 -103 191 -123 266 l-16 65 31 44
c45 62 52 95 58 276 3 88 7 166 10 173 2 8 30 -2 87 -33 46 -25 116 -56 156
-70z m442 -1563 c152 -205 148 -195 120 -284 -95 -303 -254 -778 -260 -778
-11 0 -281 819 -281 851 0 31 165 271 248 361 25 27 26 27 45 10 11 -9 68 -82
128 -160z m1180 -489 c78 -40 112 -93 117 -182 4 -75 -7 -107 -55 -155 -88
-89 -224 -88 -314 3 -45 44 -69 96 -69 147 0 39 31 109 63 143 71 74 165 90
258 44z m1467 -1010 l3 -43 -53 0 c-61 -1 -106 -22 -140 -65 -19 -25 -23 -41
-23 -100 0 -61 4 -78 27 -112 16 -24 44 -49 70 -62 43 -20 56 -21 489 -21 438
0 446 0 468 -21 12 -11 26 -32 32 -46 5 -14 9 -267 9 -604 0 -580 -2 -610 -34
-631 -6 -4 -220 -8 -476 -8 l-464 0 69 46 c87 57 116 84 170 159 59 83 93 154
115 241 11 41 22 79 25 84 4 6 51 10 105 10 78 0 102 3 115 17 26 26 36 60 24
90 -17 45 -36 52 -141 53 -53 0 -99 4 -103 9 -3 5 -15 45 -28 88 -33 115 -88
206 -176 293 -128 126 -282 190 -461 190 -312 0 -567 -199 -647 -506 l-19 -69
-104 0 c-63 0 -114 -5 -126 -13 -47 -25 -47 -119 -1 -144 13 -7 65 -12 126
-12 l103 -1 19 -75 c23 -91 75 -199 126 -260 48 -59 150 -148 199 -174 l39
-21 -480 -3 -480 -2 -22 25 -23 26 0 592 c0 573 1 593 20 625 11 17 21 33 22
34 2 1 213 5 469 8 l466 5 37 29 c57 43 76 81 76 151 0 114 -51 165 -174 174
-69 6 -71 7 -74 34 -7 60 -29 57 415 55 l408 -3 3 -42z m-204 -778 c68 -34
154 -123 178 -183 l16 -42 -139 0 -139 0 0 -75 0 -75 65 0 c57 0 69 -3 90 -25
31 -31 34 -86 5 -115 -25 -25 -60 -34 -115 -28 l-44 5 -3 -66 c-3 -66 -3 -66
-41 -85 -33 -16 -45 -17 -78 -7 -47 14 -59 34 -59 99 l0 50 -65 4 c-76 5 -102
24 -112 80 -4 30 -1 41 20 62 23 23 35 26 92 26 l66 0 -3 73 -3 72 -133 3
c-132 3 -133 3 -127 25 11 36 77 128 116 159 20 16 62 40 95 54 52 22 71 24
159 22 88 -3 108 -7 159 -33z m-2878 -900 l39 -34 -73 -1 -73 0 28 35 c15 19
31 35 34 35 3 0 23 -16 45 -35z"/>
<path d="M7142 3613 c-18 -9 -44 -35 -57 -58 -22 -37 -25 -54 -25 -138 l0 -97
146 0 146 0 -4 103 c-5 121 -20 157 -78 187 -47 24 -84 25 -128 3z"/>
<path d="M3790 3274 c-48 -14 -124 -27 -175 -30 -115 -6 -155 -17 -187 -51
-38 -41 -48 -66 -48 -120 0 -57 26 -105 72 -133 29 -17 51 -20 172 -20 116 0
151 4 207 22 l67 21 74 -21 c102 -31 280 -31 339 -2 52 27 79 72 79 133 0 111
-61 161 -210 171 -47 3 -119 15 -160 27 -107 30 -134 30 -230 3z"/>
<path d="M5063 2295 c-87 -38 -96 -179 -14 -228 83 -49 201 14 201 108 0 45
-32 98 -71 117 -41 21 -73 22 -116 3z"/>
<path d="M5053 1860 c-75 -45 -84 -148 -19 -207 108 -99 272 39 196 165 -36
59 -118 78 -177 42z"/>
</g>
</svg>
